<?xml version="1.0" encoding="UTF-8"?>
<svg width="21px" height="15px" viewBox="0 0 21 15" version="1.1" xmlns="http://www.w3.org/2000/svg" xmlns:xlink="http://www.w3.org/1999/xlink">
    <!-- Generator: sketchtool 54.1 (76490) - https://sketchapp.com -->
    <title>D76E43E5-7268-4CCB-8108-679C04267A6A</title>
    <desc>Created with sketchtool.</desc>
    <g id="Page-1" stroke="none" stroke-width="1" fill="none" fill-rule="evenodd">
        <g id="01-Login" transform="translate(-855.000000, -430.000000)" fill="#4A4A4A" fill-rule="nonzero">
            <g id="Input-fields-/-Normal-password" transform="translate(559.000000, 424.000000)">
                <g id="Icons-/-show-pass" transform="translate(295.000000, 1.000000)">
                    <path d="M12.0585938,8.51953125 C13.1002656,8.51953125 13.9856734,8.88736611 14.7148438,9.62304688 C15.4440141,10.3587276 15.8085938,11.2408803 15.8085938,12.2695312 C15.8085938,13.3112031 15.4440141,14.1966109 14.7148438,14.9257812 C13.9856734,15.6549516 13.1002656,16.0195312 12.0585938,16.0195312 C11.0299428,16.0195312 10.1477901,15.6549516 9.41210938,14.9257812 C8.67642861,14.1966109 8.30859375,13.3112031 8.30859375,12.2695312 C8.30859375,11.2408803 8.67642861,10.3587276 9.41210938,9.62304688 C10.1477901,8.88736611 11.0299428,8.51953125 12.0585938,8.51953125 Z M12.0585938,14.7695312 C12.7487014,14.7695312 13.334633,14.5221379 13.8164062,14.0273438 C14.2981795,13.5325496 14.5390625,12.9401076 14.5390625,12.25 C14.5390625,11.5598924 14.2949243,10.9707056 13.8066406,10.4824219 C13.3183569,9.99413818 12.7291701,9.75 12.0390625,9.75 C11.3489549,9.75 10.7597681,9.99413818 10.2714844,10.4824219 C9.78320068,10.9707056 9.5390625,11.5598924 9.5390625,12.25 C9.5390625,12.9401076 9.78971104,13.5325496 10.2910156,14.0273438 C10.7923202,14.5221379 11.381507,14.7695312 12.0585938,14.7695312 Z M22,12.1132812 C22,12.139323 22.0032552,12.1653645 22.0097656,12.1914062 C22.0162761,12.217448 22.0195312,12.2434895 22.0195312,12.2695312 C22.0195312,12.295573 22.0162761,12.3248696 22.0097656,12.3574219 C22.0032552,12.3899741 22,12.4192707 22,12.4453125 C21.9869791,12.4583334 21.9804688,12.4713541 21.9804688,12.484375 L21.9804688,12.5429688 L21.9609375,12.5625 L21.9609375,12.5917969 C21.9609375,12.5983073 21.9544271,12.6080729 21.9414062,12.6210938 C21.4986957,13.6627656 20.9257848,14.5872355 20.2226562,15.3945312 C19.5195277,16.201827 18.7317752,16.8821587 17.859375,17.4355469 C16.9869748,17.9889351 16.0527394,18.4121079 15.0566406,18.7050781 C14.0605419,18.9980483 13.0416719,19.1445312 12,19.1445312 C10.9583281,19.1445312 9.93945811,18.9980483 8.94335938,18.7050781 C7.94726064,18.4121079 7.0130252,17.9889351 6.140625,17.4355469 C5.2682248,16.8821587 4.48047227,16.201827 3.77734375,15.3945312 C3.07421523,14.5872355 2.49479395,13.6627656 2.0390625,12.6210938 L2.0390625,12.5625 L2.02929688,12.5527344 C2.02278643,12.5462239 2.01953125,12.5364584 2.01953125,12.5234375 L2.01953125,12.484375 C2.01953125,12.4713541 2.0130209,12.451823 2,12.4257812 C2,12.3997395 1.99674482,12.373698 1.99023438,12.3476562 C1.98372393,12.3216145 1.98046875,12.295573 1.98046875,12.2695312 C1.98046875,12.2434895 1.98372393,12.2141929 1.99023438,12.1816406 C1.99674482,12.1490884 2,12.1197918 2,12.09375 C2.0130209,12.0807291 2.01953125,12.0677084 2.01953125,12.0546875 L2.01953125,11.9960938 L2.0390625,11.9765625 L2.0390625,11.9179688 C2.49479395,10.8762969 3.07747041,9.94857178 3.78710938,9.13476562 C4.49674834,8.32095947 5.28775605,7.63411738 6.16015625,7.07421875 C7.03255645,6.51432012 7.97004707,6.08789209 8.97265625,5.79492188 C9.97526543,5.50195166 10.9973906,5.35546875 12.0390625,5.35546875 C13.0807344,5.35546875 14.0996044,5.50195166 15.0957031,5.79492188 C16.0918019,6.08789209 17.019527,6.51432012 17.8789062,7.07421875 C18.7382855,7.63411738 19.5195277,8.32095947 20.2226562,9.13476562 C20.9257848,9.94857178 21.4986957,10.8762969 21.9414062,11.9179688 C21.9544271,11.9309896 21.9609375,11.9407552 21.9609375,11.9472656 L21.9609375,11.9765625 L21.9707031,11.9863281 C21.9772136,11.9928386 21.9804688,12.0026041 21.9804688,12.015625 L21.9804688,12.0546875 C21.9804688,12.0677084 21.9869791,12.0872395 22,12.1132812 Z M12,17.8945312 C12.8854211,17.8945312 13.7610634,17.7773449 14.6269531,17.5429688 C15.4928429,17.3085926 16.3066368,16.9570336 17.0683594,16.4882812 C17.8300819,16.0195289 18.5266896,15.4335973 19.1582031,14.7304688 C19.7897167,14.0273402 20.3138,13.2070359 20.7304688,12.2695312 C20.3138,11.3320266 19.7929719,10.5117223 19.1679688,9.80859375 C18.5429656,9.10546523 17.8496132,8.51627842 17.0878906,8.04101562 C16.3261681,7.56575283 15.5156293,7.2076835 14.65625,6.96679688 C13.7968707,6.72591025 12.9244836,6.60546875 12.0390625,6.60546875 C11.1536414,6.60546875 10.2779991,6.72591025 9.41210938,6.96679688 C8.54621963,7.2076835 7.72917051,7.56575283 6.9609375,8.04101562 C6.19270449,8.51627842 5.48958652,9.10546523 4.8515625,9.80859375 C4.21353848,10.5117223 3.6862,11.3320266 3.26953125,12.2695312 C3.6862,13.2070359 4.21353848,14.0273402 4.8515625,14.7304688 C5.48958652,15.4335973 6.18944932,16.0195289 6.95117188,16.4882812 C7.71289443,16.9570336 8.5234332,17.3085926 9.3828125,17.5429688 C10.2421918,17.7773449 11.1145789,17.8945312 12,17.8945312 Z" id="show-pass"></path>
                </g>
            </g>
        </g>
    </g>
</svg>